<?xml version="1.0" encoding="UTF-8"?>
<svg width="1034px" height="18px" viewBox="0 0 1034 18" version="1.1" xmlns="http://www.w3.org/2000/svg" xmlns:xlink="http://www.w3.org/1999/xlink">
    <!-- Generator: sketchtool 51 (57462) - http://www.bohemiancoding.com/sketch -->
    <title>04621EB7-1A64-42CE-B6A2-8075C78AB774</title>
    <desc>Created with sketchtool.</desc>
    <defs></defs>
    <g id="Page-1" stroke="none" stroke-width="1" fill="none" fill-rule="evenodd">
        <g id="Slide-1-Copy-5" transform="translate(-132.000000, -68.000000)">
            <rect fill="#000000" x="0" y="0" width="1400" height="800"></rect>
            <g id="Group-3" transform="translate(132.000000, 60.000000)">
                <g id="logo_sm" transform="translate(0.500000, 9.000000)" fill="#73F5E2" fill-rule="nonzero" stroke="#73F5E2">
                    <path d="M3.984,0.9 C4.5295187,0.404148952 5.23980521,0.128659004 5.977,0.127 L9.568,0.127 C12.908,0.127 15.656,2.928 15.656,6.215 L15.656,8.513 C15.656,11.835 12.908,14.6 9.568,14.6 L5.977,14.6 C5.2399382,14.5986148 4.52966835,14.3234877 3.984,13.828 L3.912,13.756 C3.36489518,13.2074016 3.05530988,12.4657617 3.05,11.691 L3.05,7.723 L0.877,7.723 C0.691304943,7.71678777 0.542212229,7.56769506 0.536,7.382 C0.536,7.166 0.698,7.022 0.877,7.022 L3.05,7.022 L3.05,3.055 C3.05,2.283 3.355,1.529 3.912,0.99 L3.984,0.9 Z M4.63,1.223 L4.397,1.456 C3.947,1.905 3.732,2.444 3.75,3.036 L3.75,7.005 L5.905,7.005 C6.085,7.005 6.246,7.166 6.246,7.364 C6.246,7.544 6.085,7.705 5.905,7.705 L3.75,7.705 L3.75,11.673 C3.75,12.302 3.966,12.841 4.397,13.253 L4.63,13.487 L4.63,13.469 C5.025,13.756 5.492,13.919 5.977,13.919 L9.568,13.919 C10.987,13.919 12.37,13.379 13.375,12.338 L13.393,12.338 C14.399,11.332 14.937,9.95 14.937,8.531 L14.937,6.232 C14.937,4.814 14.399,3.432 13.393,2.426 L13.375,2.426 C12.37,1.384 10.987,0.846 9.568,0.846 L5.977,0.846 C5.49188118,0.84888522 5.0202118,1.00575818 4.63,1.294 L4.63,1.223 Z M27.31,0.523 L27.328,0.523 C27.687,0.773 27.974,1.151 28.154,1.563 L33.414,14.151 L33.414,14.259 C33.414,14.439 33.289,14.6 33.11,14.6 C32.984,14.6 32.876,14.546 32.858,14.42 L31.278,10.65 L20.683,10.65 L19.103,14.421 C19.049,14.547 18.942,14.601 18.816,14.601 C18.7347708,14.6015402 18.6567263,14.569442 18.5993814,14.5119091 C18.5420364,14.4543762 18.5101939,14.376227 18.511,14.295 C18.511,14.241 18.511,14.223 18.529,14.169 L23.79,1.582 C23.97,1.132 24.257,0.774 24.67,0.522 L24.724,0.468 C25.0982247,0.243701028 25.5267081,0.126118793 25.963,0.128 C26.43,0.128 26.897,0.253 27.292,0.522 L27.31,0.522 L27.31,0.523 Z M25.316,0.81 L25.011,1.025 C24.724,1.24 24.491,1.492 24.365,1.797 L20.953,10.004 L31.027,10.004 L27.579,1.797 C27.4682839,1.48803542 27.2601672,1.22341482 26.986,1.043 L26.968,1.025 C26.6723119,0.838917352 26.3303651,0.73948602 25.981,0.738 C25.7598448,0.74304509 25.5411188,0.785302813 25.334,0.863 L25.334,0.81 L25.316,0.81 Z M36.863,9.429 L36.863,14.241 C36.863,14.421 36.701,14.583 36.503,14.583 C36.3173228,14.5762439 36.1686669,14.4267136 36.163,14.241 L36.163,3.036 C36.163,2.264 36.468,1.51 37.024,0.971 L37.096,0.899 C37.6416684,0.4035123 38.3519382,0.128385192 39.089,0.127 L44.171,0.127 C46.703,0.127 48.821,2.247 48.821,4.778 C48.821,7.31 46.721,9.393 44.207,9.428 L36.863,9.428 L36.863,9.429 Z M44.171,8.729 C46.272,8.729 48.14,6.969 48.14,4.76 C48.14,2.551 46.272,0.792 44.171,0.792 L39.089,0.792 C38.604,0.792 38.137,0.953 37.742,1.241 L37.742,1.223 L37.509,1.456 C37.0937568,1.87688467 36.8615762,2.44475656 36.863,3.036 L36.8629935,8.73 L44.171,8.73 L44.171,8.729 Z M52.108,9.429 L52.108,14.241 C52.108,14.421 51.946,14.583 51.748,14.583 C51.5623228,14.5762439 51.4136669,14.4267136 51.408,14.241 L51.408,3.036 C51.408,2.264 51.713,1.51 52.27,0.971 L52.341,0.899 C52.8869239,0.403281089 53.5975931,0.128137337 54.335,0.127 L59.416,0.127 C61.948,0.127 64.067,2.247 64.067,4.778 C64.067,7.31 61.967,9.393 59.452,9.428 L52.108,9.428 L52.108,9.429 Z M59.416,8.729 C61.517,8.729 63.385,6.969 63.385,4.76 C63.385,2.551 61.517,0.792 59.416,0.792 L54.335,0.792 C53.85,0.792 53.383,0.953 52.988,1.241 L52.988,1.223 L52.754,1.456 C52.3387568,1.87688467 52.1065762,2.44475656 52.108,3.036 L52.1079935,8.73 L59.416,8.73 L59.416,8.729 Z M76.026,0.899 C76.5719239,0.403281089 77.2825931,0.128137337 78.02,0.127 L81.611,0.127 C84.951,0.127 87.698,2.928 87.698,6.215 L87.698,8.513 C87.698,11.835 84.951,14.6 81.611,14.6 L78.02,14.6 C77.2829382,14.5986148 76.5726684,14.3234877 76.027,13.828 L75.955,13.756 C75.4078952,13.2074016 75.0983099,12.4657617 75.093,11.691 L75.093,7.723 L72.92,7.723 C72.7343049,7.71678777 72.5852122,7.56769506 72.579,7.382 C72.579,7.166 72.741,7.022 72.92,7.022 L75.093,7.022 L75.093,3.055 C75.093,2.283 75.398,1.529 75.955,0.99 L76.027,0.9 L76.026,0.899 Z M76.673,1.223 L76.439,1.456 C75.991,1.905 75.775,2.444 75.793,3.036 L75.793,7.005 L77.948,7.005 C78.128,7.005 78.289,7.166 78.289,7.364 C78.289,7.544 78.127,7.705 77.948,7.705 L75.793,7.705 L75.793,11.673 C75.793,12.302 76.008,12.841 76.439,13.253 L76.673,13.487 L76.673,13.469 C77.068,13.756 77.535,13.919 78.02,13.919 L81.611,13.919 C83.03,13.919 84.412,13.379 85.418,12.338 L85.436,12.338 C86.441,11.332 86.98,9.95 86.98,8.531 L86.98,6.232 C86.98,4.814 86.441,3.432 85.436,2.426 L85.418,2.426 C84.412,1.384 83.03,0.846 81.611,0.846 L78.02,0.846 C77.5348812,0.84888522 77.0632118,1.00575818 76.673,1.294 L76.673,1.223 Z M111.437,14.205 C111.024,13.954 110.737,13.559 110.557,13.145 L105.296,0.558 C105.278,0.54 105.278,0.486 105.278,0.432 C105.278,0.252 105.44,0.127 105.583,0.127 C105.705547,0.126904237 105.817386,0.196803616 105.871,0.307 L111.132,12.912 C111.26429,13.2290159 111.489514,13.4985182 111.778,13.685 L112.084,13.9 L112.084,13.846 C112.299,13.918 112.533,13.972 112.73,13.972 C113.09,13.972 113.43,13.864 113.718,13.685 L113.736,13.667 C114.023,13.487 114.221,13.2 114.328,12.912 L119.608,0.307 C119.626,0.199 119.733,0.127 119.859,0.127 C120.039,0.127 120.164,0.289 120.164,0.468 L120.164,0.576 L114.903,13.164 C114.723,13.577 114.436,13.936 114.077,14.206 L114.023,14.224 C113.6261,14.4783303 113.165381,14.6152635 112.694,14.619 C112.245,14.619 111.832,14.511 111.455,14.277 L111.437,14.206 L111.437,14.205 Z M91.577,0.792 L101.759,0.792 C101.939,0.792 102.099,0.63 102.099,0.45 C102.092306,0.265066842 101.943933,0.116693921 101.759,0.11 L91.577,0.11 C91.3916765,0.116181437 91.2427257,0.264695477 91.236,0.45 C91.2326166,0.541524181 91.2674214,0.630337989 91.3320881,0.695194315 C91.3967548,0.76005064 91.4854663,0.795115407 91.577,0.792 Z M91.577,14.582 L101.759,14.582 C101.939,14.582 102.099,14.421 102.099,14.242 C102.093333,14.0562864 101.944677,13.9067561 101.759,13.9 L91.577,13.9 C91.3913049,13.9062122 91.2422122,14.0553049 91.236,14.241 C91.2329006,14.3323538 91.267831,14.420901 91.332465,14.485535 C91.397099,14.550169 91.4856462,14.5850994 91.577,14.582 Z M91.577,7.687 L99.891,7.687 C100.071,7.687 100.232,7.525 100.232,7.346 C100.225819,7.16067652 100.077305,7.01172568 99.892,7.005 L91.577,7.005 C91.3916765,7.01118144 91.2427257,7.15969548 91.236,7.345 C91.2326166,7.43652418 91.2674214,7.52533799 91.3320881,7.59019431 C91.3967548,7.65505064 91.4854663,7.69011541 91.577,7.687 Z" id="Shape"></path>
                </g>
                <text id="Log-in" font-family="Roboto-Regular, Roboto" font-size="12" font-weight="normal" line-spacing="37.35552" letter-spacing="0.1068115" fill="#141516">
                    <tspan x="1001.56965" y="11">Log in</tspan>
                </text>
            </g>
        </g>
    </g>
</svg>