<?xml version="1.0" encoding="utf-8"?>
<!-- Generator: Adobe Illustrator 19.0.1, SVG Export Plug-In . SVG Version: 6.00 Build 0)  -->
<svg version="1.1" id="Шар_1" xmlns="http://www.w3.org/2000/svg" xmlns:xlink="http://www.w3.org/1999/xlink" x="0px" y="0px"
	 viewBox="-245 388 121 17" style="enable-background:new -245 388 121 17;" xml:space="preserve">
<style type="text/css">
	.st0{fill:#73F5E2;stroke:#73F5E2;}
</style>
<path class="st0" d="M-241,389.9c0.5-0.5,1.3-0.8,2-0.8h3.6c3.3,0,6.1,2.8,6.1,6.1v2.3c0,3.3-2.7,6.1-6.1,6.1h-3.6
	c-0.7,0-1.4-0.3-2-0.8l-0.1-0.1c-0.5-0.5-0.9-1.3-0.9-2.1v-4h-2.2c-0.2,0-0.3-0.2-0.3-0.3c0-0.2,0.2-0.4,0.3-0.4h2.2v-4
	C-241.9,391.3-241.6,390.5-241,389.9C-241.1,390-241,389.9-241,389.9z M-240.4,390.2l-0.2,0.2c-0.4,0.4-0.7,1-0.6,1.6v4h2.2
	c0.2,0,0.3,0.2,0.3,0.4c0,0.2-0.2,0.3-0.3,0.3h-2.2v4c0,0.6,0.2,1.2,0.6,1.6l0.2,0.2v0c0.4,0.3,0.9,0.5,1.3,0.5h3.6
	c1.4,0,2.8-0.5,3.8-1.6h0c1-1,1.5-2.4,1.5-3.8v-2.3c0-1.4-0.5-2.8-1.5-3.8h0c-1-1-2.4-1.6-3.8-1.6h-3.6
	C-239.5,389.8-240,390-240.4,390.2C-240.4,390.3-240.4,390.2-240.4,390.2z M-217.7,389.5L-217.7,389.5c0.4,0.3,0.7,0.6,0.8,1
	l5.3,12.6v0.1c0,0.2-0.1,0.3-0.3,0.3c-0.1,0-0.2-0.1-0.3-0.2l-1.6-3.8h-10.6l-1.6,3.8c-0.1,0.1-0.2,0.2-0.3,0.2
	c-0.2,0-0.3-0.1-0.3-0.3c0,0,0,0,0,0c0-0.1,0-0.1,0-0.1l5.3-12.6c0.2-0.5,0.5-0.8,0.9-1.1l0.1-0.1c0.4-0.2,0.8-0.3,1.2-0.3
	C-218.6,389.1-218.1,389.3-217.7,389.5L-217.7,389.5L-217.7,389.5z M-219.7,389.8l-0.3,0.2c-0.3,0.2-0.5,0.5-0.6,0.8l-3.4,8.2h10.1
	l-3.4-8.2c-0.1-0.3-0.3-0.6-0.6-0.8l0,0c-0.3-0.2-0.6-0.3-1-0.3C-219.2,389.7-219.5,389.8-219.7,389.8L-219.7,389.8L-219.7,389.8z
	 M-208.1,398.4v4.8c0,0.2-0.2,0.3-0.4,0.3c-0.2,0-0.3-0.2-0.3-0.3V392c0-0.8,0.3-1.5,0.9-2.1l0.1-0.1c0.5-0.5,1.3-0.8,2-0.8h5.1
	c2.5,0,4.6,2.1,4.6,4.7c0,2.5-2.1,4.6-4.6,4.6L-208.1,398.4L-208.1,398.4z M-200.8,397.7c2.1,0,4-1.8,4-4c0-2.2-1.9-4-4-4h-5.1
	c-0.5,0-1,0.2-1.3,0.4v0l-0.2,0.2c-0.4,0.4-0.6,1-0.6,1.6v5.7L-200.8,397.7L-200.8,397.7z M-192.9,398.4v4.8c0,0.2-0.2,0.3-0.4,0.3
	c-0.2,0-0.3-0.2-0.3-0.3V392c0-0.8,0.3-1.5,0.9-2.1l0.1-0.1c0.5-0.5,1.3-0.8,2-0.8h5.1c2.5,0,4.7,2.1,4.7,4.7c0,2.5-2.1,4.6-4.6,4.6
	L-192.9,398.4L-192.9,398.4z M-185.6,397.7c2.1,0,4-1.8,4-4c0-2.2-1.9-4-4-4h-5.1c-0.5,0-1,0.2-1.3,0.4v0l-0.2,0.2
	c-0.4,0.4-0.6,1-0.6,1.6v5.7L-185.6,397.7L-185.6,397.7z M-169,389.9c0.5-0.5,1.3-0.8,2-0.8h3.6c3.3,0,6.1,2.8,6.1,6.1v2.3
	c0,3.3-2.7,6.1-6.1,6.1h-3.6c-0.7,0-1.4-0.3-2-0.8l-0.1-0.1c-0.5-0.5-0.9-1.3-0.9-2.1v-4h-2.2c-0.2,0-0.3-0.2-0.3-0.3
	c0-0.2,0.2-0.4,0.3-0.4h2.2v-4C-169.9,391.3-169.6,390.5-169,389.9L-169,389.9L-169,389.9z M-168.3,390.2l-0.2,0.2
	c-0.4,0.4-0.7,1-0.6,1.6v4h2.2c0.2,0,0.3,0.2,0.3,0.4c0,0.2-0.2,0.3-0.3,0.3h-2.2v4c0,0.6,0.2,1.2,0.6,1.6l0.2,0.2v0
	c0.4,0.3,0.9,0.5,1.3,0.5h3.6c1.4,0,2.8-0.5,3.8-1.6h0c1-1,1.5-2.4,1.5-3.8v-2.3c0-1.4-0.5-2.8-1.5-3.8h0c-1-1-2.4-1.6-3.8-1.6h-3.6
	C-167.5,389.8-167.9,390-168.3,390.2C-168.3,390.3-168.3,390.2-168.3,390.2z M-133.6,403.2c-0.4-0.3-0.7-0.6-0.9-1.1l-5.3-12.6
	c0,0,0-0.1,0-0.1c0-0.2,0.2-0.3,0.3-0.3c0.1,0,0.2,0.1,0.3,0.2l5.3,12.6c0.1,0.3,0.4,0.6,0.6,0.8l0.3,0.2v-0.1
	c0.2,0.1,0.4,0.1,0.6,0.1c0.4,0,0.7-0.1,1-0.3l0,0c0.3-0.2,0.5-0.5,0.6-0.8l5.3-12.6c0-0.1,0.1-0.2,0.3-0.2c0.2,0,0.3,0.2,0.3,0.3
	v0.1l-5.3,12.6c-0.2,0.4-0.5,0.8-0.8,1l-0.1,0c-0.4,0.3-0.9,0.4-1.3,0.4C-132.8,403.6-133.2,403.5-133.6,403.2L-133.6,403.2
	L-133.6,403.2z M-153.4,389.8h10.2c0.2,0,0.3-0.2,0.3-0.3c0-0.2-0.2-0.3-0.3-0.3h-10.2c-0.2,0-0.3,0.2-0.3,0.3
	C-153.8,389.6-153.6,389.8-153.4,389.8C-153.4,389.8-153.4,389.8-153.4,389.8z M-153.4,403.6h10.2c0.2,0,0.3-0.2,0.3-0.3
	c0-0.2-0.2-0.3-0.3-0.3h-10.2c-0.2,0-0.3,0.2-0.3,0.3C-153.8,403.4-153.6,403.6-153.4,403.6C-153.4,403.6-153.4,403.6-153.4,403.6z
	 M-153.4,396.7h8.3c0.2,0,0.3-0.2,0.3-0.3c0-0.2-0.2-0.3-0.3-0.3h-8.3c-0.2,0-0.3,0.2-0.3,0.3C-153.8,396.5-153.6,396.7-153.4,396.7
	C-153.4,396.7-153.4,396.7-153.4,396.7z"/>
</svg>
